<svg width="193" height="77" viewBox="0 0 193 77" fill="none" xmlns="http://www.w3.org/2000/svg">
<path d="M191.528 2.19996C191.528 2.19996 184.556 8.02376 174.389 1H174.429C174.429 11.9276 181.778 23.1912 178.271 31.7349C174.229 41.5986 160.251 45.2225 152.766 51.9102C144.889 58.95 140.55 71.4296 130.368 74.9495C120.193 78.4613 107.536 71.7575 96.5932 71.7575C85.6499 71.7575 72.9935 78.4613 62.8187 74.9495C52.636 71.4296 48.2971 58.95 40.4198 51.9102C32.9349 45.2225 18.9576 41.5986 14.9149 31.7349C11.4086 23.1912 18.7575 11.9276 18.7575 1L18.8215 1.048C8.64676 8.07175 1.68213 2.24796 1.68213 2.24796" stroke="#4FA1BB" stroke-width="2" stroke-miterlimit="10" stroke-linecap="round" stroke-linejoin="round"/>
</svg>
