<svg width="613" height="613" viewBox="0 0 613 613" fill="none" xmlns="http://www.w3.org/2000/svg">
<path d="M218.247 571.415L218.09 571.89L218.247 571.415C205.94 567.339 192.298 565.078 178.524 562.795C172.401 561.78 166.252 560.761 160.182 559.575C140.41 555.715 121.409 550.092 106.497 537.192L106.17 537.57L106.497 537.192C91.5804 524.296 83.2755 506.304 76.6031 487.294C74.5559 481.462 72.6611 475.528 70.7743 469.619C66.5261 456.314 62.319 443.139 56.507 431.546L56.0601 431.77L56.507 431.546C50.3858 419.342 42.1011 407.604 33.838 395.896C30.3525 390.958 26.8709 386.025 23.5571 381.065C12.3615 364.307 3.04879 347.202 1.67875 328.314C0.30871 309.426 7.05785 291.157 15.7203 272.959C18.2824 267.576 21.0143 262.196 23.7492 256.81C30.2398 244.028 36.7476 231.213 41.0447 218.247L40.5701 218.09L41.0447 218.247C45.1207 205.939 47.3819 192.298 49.6652 178.524C50.6802 172.401 51.6995 166.252 52.8845 160.182C56.7446 140.41 62.3675 121.409 75.2682 106.497L75.2683 106.497C88.164 91.5803 106.154 83.2754 125.161 76.603C130.993 74.5556 136.927 72.6606 142.836 70.7736C156.138 66.5256 169.312 62.3187 180.904 56.507C193.122 50.3823 204.871 42.0916 216.588 33.8237C221.521 30.343 226.448 26.8663 231.402 23.557C248.161 12.3614 265.264 3.04873 284.146 1.67869C299.209 0.586855 313.879 4.65459 328.437 10.7425C337.564 14.5594 346.606 19.1501 355.664 23.7495C361.078 26.4982 366.498 29.2499 371.945 31.8415C379.324 35.3528 385.647 40.7992 389.943 47.7304C390.402 48.489 390.85 49.2353 391.287 49.9905L391.483 50.3278L391.857 50.2208C391.875 50.2158 391.893 50.2119 391.932 50.2031C391.96 50.1969 392.006 50.1867 392.056 50.1715C404.281 47.1624 417.016 46.8246 429.437 48.9031C430.928 49.1534 432.422 49.4015 433.917 49.6499C459.952 53.9758 486.453 58.3788 505.973 75.2582C520.885 88.1589 529.187 106.151 535.858 125.159C537.904 130.989 539.798 136.92 541.684 142.826C545.932 156.132 550.14 169.309 555.953 180.904C562.076 193.114 570.364 204.858 578.63 216.571C582.114 221.508 585.594 226.439 588.907 231.398C600.104 248.158 609.416 265.263 610.781 284.146C612.151 303.034 605.402 321.301 596.74 339.498C594.179 344.876 591.449 350.253 588.716 355.635C582.224 368.42 575.714 381.241 571.415 394.213L571.89 394.37L571.415 394.213C567.345 406.514 565.085 420.145 562.803 433.91C561.787 440.04 560.766 446.197 559.579 452.274C555.718 472.045 550.093 491.046 537.192 505.963L537.57 506.29L537.192 505.963C524.301 520.875 506.311 529.177 487.303 535.849C481.478 537.894 475.551 539.787 469.649 541.672C456.338 545.924 443.155 550.135 431.556 555.953C419.339 562.076 407.589 570.368 395.871 578.638C390.941 582.117 386.018 585.592 381.067 588.899C364.309 600.096 347.207 609.411 328.324 610.781C309.431 612.146 291.159 605.397 272.96 596.736C267.576 594.174 262.195 591.442 256.808 588.707C244.027 582.218 231.212 575.712 218.247 571.415Z" fill="white" stroke="#4FA1BB"/>
<path d="M391.72 49.74C391.28 48.98 390.83 48.23 390.37 47.47C386.02 40.45 379.62 34.94 372.16 31.39C343.13 17.58 314.46 -1.02 284.11 1.18C246.07 3.94 215.33 38.69 180.68 56.06C147.27 72.81 100.86 76.13 74.8901 106.17C48.9101 136.2 52.3201 182.61 40.5701 218.09C28.3801 254.87 -1.57994 290.3 1.18006 328.35C3.94006 366.4 38.6901 397.14 56.0601 431.77C72.8101 465.18 76.1301 511.6 106.17 537.57C136.2 563.55 182.61 560.14 218.09 571.89C254.87 584.08 290.3 614.03 328.36 611.28C366.4 608.52 397.14 573.76 431.78 556.4C465.19 539.64 511.61 536.32 537.57 506.29C563.55 476.25 560.15 429.85 571.89 394.37C584.08 357.58 614.04 322.16 611.28 284.11C608.53 246.07 573.77 215.32 556.4 180.68C539.65 147.27 536.33 100.86 506.3 74.88C485.53 56.92 456.92 53.01 429.52 48.41C417.03 46.32 404.22 46.66 391.92 49.69C391.86 49.71 391.79 49.72 391.72 49.74ZM391.72 49.74C366.35 61.66 349.61 78.03 354.32 95.91C359.29 114.78 376.09 117.2 388.67 105.79C406.32 89.79 394.08 65.55 391.72 49.74Z" stroke="#4FA1BB" stroke-width="2" stroke-miterlimit="10"/>
</svg>
