<svg width="212" height="57" viewBox="0 0 212 57" fill="none" xmlns="http://www.w3.org/2000/svg">
<path fill-rule="evenodd" clip-rule="evenodd" d="M210.493 29.8579C210.526 29.8463 210.558 29.8338 210.59 29.82C210.977 29.6548 211.273 29.3345 211.412 28.9466C211.421 28.9216 211.43 28.8964 211.437 28.8708C211.478 28.7339 211.5 28.5896 211.5 28.4415C211.5 28.3291 211.488 28.2188 211.464 28.1123C211.449 28.0446 211.429 27.9784 211.405 27.9141C211.398 27.8969 211.392 27.8799 211.385 27.863C211.221 27.4703 210.898 27.1693 210.506 27.0284C210.474 27.0168 210.441 27.0063 210.408 26.9969C210.332 26.9754 210.254 26.9598 210.174 26.9505C205.044 26.233 197.284 24.0842 190.721 20.0056C184.15 15.9221 178.99 10.0532 178.522 1.9138C178.474 1.08674 177.765 0.454872 176.938 0.502478C176.111 0.550085 175.479 1.25914 175.527 2.0862C176.073 11.5739 182.117 18.1909 189.138 22.5537C192.051 24.3642 195.169 25.8122 198.21 26.9407H2C1.17157 26.9407 0.5 27.6123 0.5 28.4407C0.5 29.2691 1.17157 29.9407 2 29.9407H198.21C195.169 31.0691 192.051 32.5171 189.138 34.3277C182.117 38.6905 176.073 45.3075 175.527 54.7952C175.479 55.6222 176.111 56.3313 176.938 56.3789C177.765 56.4265 178.474 55.7946 178.522 54.9676C178.99 46.8281 184.15 40.9592 190.721 36.8757C197.284 32.7971 205.044 30.6484 210.174 29.9309C210.219 29.9256 210.264 29.9184 210.308 29.9091C210.371 29.8959 210.433 29.8788 210.493 29.8579Z" fill="#4FA1BB"/>
</svg>
