<svg width="482" height="465" viewBox="0 0 482 465" fill="none" xmlns="http://www.w3.org/2000/svg">
<path d="M276.391 462.808C239.967 469.96 215.767 447.657 188.357 438.409C159.938 428.825 122.849 435.977 89.7954 414.098C39.6581 380.907 61.9369 338.932 48.496 311.853C35.5274 285.734 0.80831 256.247 0.800304 232.504C0.776288 172.834 39.0417 172.658 48.1357 144.947C57.566 116.22 58.6707 83.1811 78.4759 61.1499C103.428 33.3908 142.406 39.9106 165.646 35.5508C194.033 30.2229 197.507 11.7436 232.77 3.96785C262.734 -2.63992 287.287 -0.200005 304.01 23.6472C324.095 52.2862 295.996 82.5891 289.112 65.4777C273.661 27.0631 372.911 17.5514 394.294 38.6467C418.99 63.0138 409.256 102.092 429.501 124.556C447.753 144.803 478.021 170.93 480.807 201.833C485.13 249.735 452.652 257.007 442.798 301.83C436.306 331.357 447.297 370.795 422.44 401.09C389.122 441.705 362.48 420.721 335.735 434.273C309.934 447.353 306.499 456.896 276.391 462.808Z" fill="white" stroke="#4FA1BB" stroke-width="2" stroke-miterlimit="10"/>
<path d="M151.853 193.409C151.853 192.393 151.885 191.393 151.925 190.393C151.885 191.385 151.853 192.393 151.853 193.409Z" fill="#81BF2A" stroke="#81BF2A" stroke-miterlimit="10"/>
<path d="M152.205 186.634C152.413 184.57 152.717 182.546 153.11 180.57" stroke="#81BF2A" stroke-miterlimit="10"/>
<path d="M209.659 232.784C208.266 234.2 206.793 235.48 205.256 236.616C206.793 235.48 208.266 234.192 209.659 232.784Z" fill="#81BF2A" stroke="#81BF2A" stroke-miterlimit="10"/>
<path d="M205.256 236.608C203.207 238.12 201.037 239.368 198.772 240.328C201.037 239.376 203.207 238.128 205.256 236.608Z" fill="#81BF2A" stroke="#81BF2A" stroke-miterlimit="10"/>
<path d="M188.021 242.544C190.519 242.544 192.952 242.2 195.306 241.544" stroke="#81BF2A" stroke-miterlimit="10"/>
<path d="M151.973 189.625C152.021 188.817 152.077 188.018 152.149 187.218C152.077 188.018 152.013 188.817 151.973 189.625Z" fill="#81BF2A" stroke="#81BF2A" stroke-miterlimit="10"/>
<path d="M223.885 187.218C223.957 188.018 224.021 188.817 224.061 189.633C224.021 188.817 223.957 188.01 223.885 187.218Z" fill="#81BF2A" stroke="#81BF2A" stroke-miterlimit="10"/>
<path d="M224.109 190.385C224.157 191.385 224.181 192.393 224.181 193.409" stroke="#81BF2A" stroke-miterlimit="10"/>
<path d="M223.829 186.634C223.845 186.826 223.869 187.018 223.885 187.218C223.869 187.018 223.853 186.826 223.829 186.634Z" fill="white" stroke="#666464" stroke-miterlimit="10"/>
<path d="M151.853 193.409C151.853 220.544 168.048 242.536 188.021 242.536C168.048 242.544 151.853 220.544 151.853 193.409Z" fill="white" stroke="#666464" stroke-miterlimit="10"/>
<path d="M151.925 190.385C151.933 190.129 151.957 189.873 151.965 189.625C151.957 189.881 151.941 190.129 151.925 190.385Z" fill="white" stroke="#666464" stroke-miterlimit="10"/>
<path d="M152.149 187.218C152.165 187.026 152.181 186.826 152.205 186.634C152.181 186.826 152.165 187.018 152.149 187.218Z" fill="white" stroke="#666464" stroke-miterlimit="10"/>
<path d="M224.069 189.625C224.085 189.881 224.101 190.129 224.109 190.385C224.093 190.129 224.077 189.881 224.069 189.625Z" fill="white" stroke="#666464" stroke-miterlimit="10"/>
<path d="M224.109 190.385C224.101 190.129 224.077 189.881 224.069 189.625C224.021 188.817 223.965 188.01 223.892 187.21C223.876 187.018 223.86 186.818 223.836 186.626C223.628 184.562 223.324 182.538 222.932 180.562H153.117C152.725 182.538 152.421 184.562 152.213 186.626C152.197 186.818 152.173 187.018 152.157 187.21C152.085 188.01 152.021 188.809 151.981 189.617C151.965 189.873 151.949 190.129 151.941 190.377C151.893 191.377 151.869 192.377 151.869 193.393V193.401C151.869 220.536 168.063 242.528 188.037 242.528C190.534 242.528 192.968 242.184 195.322 241.528C196.498 241.2 197.651 240.792 198.788 240.32C201.053 239.36 203.223 238.112 205.272 236.6C206.809 235.464 208.282 234.184 209.675 232.768C218.497 223.808 224.205 209.513 224.205 193.401C224.181 192.393 224.157 191.385 224.109 190.385Z" fill="white" stroke="#9FE1D9" stroke-miterlimit="10"/>
<path d="M178.15 214.017C189.54 214.017 198.772 204.79 198.772 193.409C198.772 182.028 189.54 172.802 178.15 172.802C166.761 172.802 157.529 182.028 157.529 193.409C157.529 204.79 166.761 214.017 178.15 214.017Z" fill="#4FA1BB"/>
<path d="M188.021 144.755C171.322 144.755 157.273 160.138 153.11 181.034H222.916C218.761 160.138 204.72 144.755 188.021 144.755Z" fill="#9FE1D9" stroke="#9FE1D9" stroke-miterlimit="10"/>
<path d="M273.91 193.409C273.91 192.393 273.942 191.393 273.982 190.393C273.942 191.385 273.91 192.393 273.91 193.409Z" fill="#81BF2A" stroke="#81BF2A" stroke-miterlimit="10"/>
<path d="M274.262 186.634C274.47 184.57 274.775 182.546 275.167 180.57" stroke="#81BF2A" stroke-miterlimit="10"/>
<path d="M331.716 232.784C330.323 234.2 328.85 235.48 327.313 236.616C328.85 235.48 330.323 234.192 331.716 232.784Z" fill="#81BF2A" stroke="#81BF2A" stroke-miterlimit="10"/>
<path d="M327.313 236.608C325.264 238.12 323.095 239.368 320.829 240.328C323.095 239.376 325.264 238.128 327.313 236.608Z" fill="#81BF2A" stroke="#81BF2A" stroke-miterlimit="10"/>
<path d="M310.078 242.544C312.576 242.544 315.009 242.2 317.363 241.544" stroke="#81BF2A" stroke-miterlimit="10"/>
<path d="M274.03 189.625C274.078 188.817 274.134 188.018 274.206 187.218C274.134 188.018 274.07 188.817 274.03 189.625Z" fill="#81BF2A" stroke="#81BF2A" stroke-miterlimit="10"/>
<path d="M345.942 187.218C346.014 188.018 346.078 188.817 346.118 189.633C346.078 188.817 346.022 188.01 345.942 187.218Z" fill="#81BF2A" stroke="#81BF2A" stroke-miterlimit="10"/>
<path d="M346.166 190.385C346.214 191.385 346.238 192.393 346.238 193.409" stroke="#81BF2A" stroke-miterlimit="10"/>
<path d="M345.886 186.634C345.902 186.826 345.926 187.018 345.942 187.218C345.926 187.018 345.91 186.826 345.886 186.634Z" fill="white" stroke="#666464" stroke-miterlimit="10"/>
<path d="M273.91 193.409C273.91 220.544 290.104 242.536 310.078 242.536C290.104 242.544 273.91 220.544 273.91 193.409Z" fill="white" stroke="#666464" stroke-miterlimit="10"/>
<path d="M273.982 190.385C273.99 190.129 274.014 189.873 274.022 189.625C274.014 189.881 273.998 190.129 273.982 190.385Z" fill="white" stroke="#666464" stroke-miterlimit="10"/>
<path d="M274.206 187.218C274.222 187.026 274.238 186.826 274.262 186.634C274.238 186.826 274.222 187.018 274.206 187.218Z" fill="white" stroke="#666464" stroke-miterlimit="10"/>
<path d="M346.126 189.625C346.142 189.881 346.158 190.129 346.166 190.385C346.158 190.129 346.134 189.881 346.126 189.625Z" fill="white" stroke="#666464" stroke-miterlimit="10"/>
<path d="M346.166 190.385C346.158 190.129 346.134 189.881 346.126 189.625C346.078 188.817 346.022 188.01 345.95 187.21C345.934 187.018 345.918 186.818 345.894 186.626C345.685 184.562 345.381 182.538 344.989 180.562H275.175C274.782 182.538 274.478 184.562 274.27 186.626C274.254 186.818 274.23 187.018 274.214 187.21C274.142 188.01 274.078 188.809 274.038 189.617C274.022 189.873 274.006 190.129 273.998 190.377C273.95 191.377 273.926 192.377 273.926 193.393V193.401C273.926 220.536 290.121 242.528 310.094 242.528C312.591 242.528 315.025 242.184 317.379 241.528C318.555 241.2 319.708 240.792 320.845 240.32C323.11 239.36 325.28 238.112 327.329 236.6C328.866 235.464 330.339 234.184 331.732 232.768C340.554 223.808 346.262 209.513 346.262 193.401C346.238 192.393 346.214 191.385 346.166 190.385Z" fill="white" stroke="#9FE1D9" stroke-miterlimit="10"/>
<path d="M300.207 214.017C311.596 214.017 320.829 204.79 320.829 193.409C320.829 182.028 311.596 172.802 300.207 172.802C288.818 172.802 279.585 182.028 279.585 193.409C279.585 204.79 288.818 214.017 300.207 214.017Z" fill="#4FA1BB"/>
<path d="M310.078 144.755C293.379 144.755 279.329 160.138 275.167 181.034H344.973C340.818 160.138 326.777 144.755 310.078 144.755Z" fill="#9FE1D9"/>
<path d="M337.528 276.67C337.528 276.67 330.556 282.494 320.389 275.471H320.429C320.429 286.398 327.778 297.662 324.271 306.205C320.229 316.069 306.251 319.693 298.766 326.381C290.889 333.421 286.55 345.9 276.368 349.42C266.193 352.932 253.536 346.228 242.593 346.228C231.65 346.228 218.993 352.932 208.819 349.42C198.636 345.9 194.297 333.421 186.42 326.381C178.935 319.693 164.958 316.069 160.915 306.205C157.409 297.662 164.757 286.398 164.757 275.471L164.822 275.519C154.647 282.542 147.682 276.718 147.682 276.718" stroke="#4FA1BB" stroke-width="2" stroke-miterlimit="10" stroke-linecap="round" stroke-linejoin="round"/>
</svg>
