<svg width="482" height="465" viewBox="0 0 482 465" fill="none" xmlns="http://www.w3.org/2000/svg">
<path d="M276.391 462.808C239.967 469.96 215.767 447.657 188.357 438.409C159.938 428.825 122.849 435.977 89.7954 414.098C39.6581 380.907 61.9369 338.932 48.496 311.853C35.5274 285.734 0.80831 256.247 0.800304 232.504C0.776288 172.834 39.0417 172.658 48.1357 144.947C57.566 116.22 58.6707 83.1811 78.4759 61.1499C103.428 33.3909 142.406 39.9106 165.646 35.5508C194.033 30.223 197.507 11.7436 232.77 3.96786C262.734 -2.63991 287.286 -0.199996 304.01 23.6472C324.095 52.2862 295.996 82.5892 289.112 65.4777C273.661 27.0631 372.911 17.5514 394.294 38.6467C418.99 63.0138 409.255 102.092 429.501 124.556C447.753 144.803 478.021 170.93 480.807 201.833C485.13 249.735 452.652 257.007 442.798 301.83C436.305 331.357 447.297 370.795 422.44 401.09C389.122 441.705 362.48 420.722 335.735 434.273C309.934 447.353 306.499 456.896 276.391 462.808Z" fill="white" stroke="#4FA1BB" stroke-width="2" stroke-miterlimit="10"/>
</svg>
